<?xml version="1.0" encoding="UTF-8"?>
<svg width="152px" height="40px" viewBox="0 0 152 40" version="1.1" xmlns="http://www.w3.org/2000/svg" xmlns:xlink="http://www.w3.org/1999/xlink">
    <title>text-logo</title>
    <g id="Page-1" stroke="none" stroke-width="1" fill="none" fill-rule="evenodd">
        <g id="Artboard" transform="translate(-51.000000, -116.000000)" fill="#AD3DA4" fill-rule="nonzero">
            <path d="M58.3100586,145.488281 C59.6935221,145.488281 61.1054688,145.280762 62.5458984,144.865723 C63.9863281,144.450684 65.3901367,143.844401 66.7573242,143.046875 C67.4083659,144.235026 67.8844401,144.898275 68.1855469,145.036621 C68.4866536,145.174967 68.9220378,145.244141 69.4916992,145.244141 C70.6635742,145.244141 71.5953776,145.097656 72.2871094,144.804688 C72.9788411,144.511719 73.324707,144.088542 73.324707,143.535156 C73.324707,143.193359 73.2270508,142.843424 73.0317383,142.485352 C72.3318685,142.631836 71.8313802,142.322591 71.5302734,141.557617 C71.2291667,140.792643 71.0786133,138.66862 71.0786133,135.185547 L71.0786133,135.185547 L71.0786133,127.666016 C71.0786133,125.013021 70.3909505,123.190104 69.015625,122.197266 C67.6402995,121.204427 65.512207,120.708008 62.6313477,120.708008 C60.4666341,120.708008 58.4239909,120.838216 56.503418,121.098633 C54.5828451,121.359049 53.4882812,121.578776 53.2197266,121.757812 C52.9511719,121.936849 52.8168945,122.189128 52.8168945,122.514648 C52.8168945,123.00293 52.991862,123.645833 53.3417969,124.443359 C53.6917318,125.240885 54.0335286,125.790202 54.3671875,126.091309 C54.7008464,126.392415 55.2908529,126.433105 56.137207,126.213379 C56.9835612,125.993652 57.4514974,125.851237 57.5410156,125.786133 C57.6305339,125.721029 57.9112956,125.216471 58.3833008,124.272461 C59.2784831,124.077148 60.2143555,123.979492 61.190918,123.979492 C63.0301107,123.979492 64.311849,124.541016 65.0361328,125.664062 C65.7604167,126.787109 66.1713867,128.780924 66.269043,131.645508 L66.269043,131.645508 L62.6801758,131.645508 C58.9692383,131.645508 56.2267253,132.304688 54.4526367,133.623047 C52.6785482,134.941406 51.7915039,136.845703 51.7915039,139.335938 C51.7915039,141.370443 52.3286133,142.90446 53.402832,143.937988 C54.4770508,144.971517 56.112793,145.488281 58.3100586,145.488281 Z M60.9711914,142.216797 C59.5877279,142.216797 58.5664062,141.887207 57.9072266,141.228027 C57.2480469,140.568848 56.918457,139.588216 56.918457,138.286133 C56.918457,136.951497 57.288737,135.974935 58.0292969,135.356445 C58.7698568,134.737956 60.0678711,134.428711 61.9233398,134.428711 C63.4207357,134.428711 64.8693034,134.550781 66.269043,134.794922 L66.269043,134.794922 L66.269043,136.235352 C66.269043,137.862956 66.1184896,139.055176 65.8173828,139.812012 C65.516276,140.568848 64.9018555,141.158854 63.9741211,141.582031 C63.0463867,142.005208 62.0454102,142.216797 60.9711914,142.216797 Z M85.3852539,145.488281 C88.6892904,145.488281 91.2364909,144.869792 93.0268555,143.632812 C94.8172201,142.395833 95.7124023,140.613607 95.7124023,138.286133 C95.7124023,136.44694 95.1264648,135.002441 93.9545898,133.952637 C92.7827148,132.902832 90.8133138,131.889648 88.0463867,130.913086 C85.8491211,130.099284 84.3964844,129.391276 83.6884766,128.789062 C82.9804688,128.186849 82.6264648,127.421875 82.6264648,126.494141 C82.6264648,125.598958 82.9397786,124.915365 83.5664062,124.443359 C84.1930339,123.971354 85.1329753,123.735352 86.3862305,123.735352 C88.2416992,123.735352 90.7644857,124.475911 93.9545898,125.957031 C94.7683919,125.013021 95.175293,124.060872 95.175293,123.100586 C95.175293,122.172852 94.5445964,121.501465 93.2832031,121.086426 C92.0218099,120.671387 90.3168945,120.463867 88.168457,120.463867 C84.7179362,120.463867 82.1056315,121.098633 80.331543,122.368164 C78.5574544,123.637695 77.6704102,125.30599 77.6704102,127.373047 C77.6704102,128.902995 78.1180013,130.164388 79.0131836,131.157227 C79.9083659,132.150065 81.527832,133.094076 83.871582,133.989258 C86.2478841,134.916992 87.9934896,135.718587 89.1083984,136.394043 C90.2233073,137.069499 90.7807617,137.985026 90.7807617,139.140625 C90.7807617,140.214844 90.4145508,140.996094 89.6821289,141.484375 C88.949707,141.972656 87.8347982,142.216797 86.3374023,142.216797 C83.9448242,142.216797 81.3569336,141.565755 78.5737305,140.263672 C77.9389648,141.061198 77.621582,141.875 77.621582,142.705078 C77.621582,143.844401 78.2848307,144.593099 79.6113281,144.951172 C80.9378255,145.309245 82.8624674,145.488281 85.3852539,145.488281 Z M102.133301,155.742188 C103.956217,155.742188 105.579753,155.546875 107.003906,155.15625 C108.42806,154.765625 109.705729,153.878581 110.836914,152.495117 C111.968099,151.111654 113.709635,146.586914 116.061523,138.920898 C118.413411,131.254883 119.97998,126.225586 120.76123,123.833008 L120.76123,123.833008 L121.29834,123.833008 C121.819173,123.833008 122.185384,123.74349 122.396973,123.564453 C122.608561,123.385417 122.714355,123.04362 122.714355,122.539062 C122.714355,122.018229 122.608561,121.529948 122.396973,121.074219 L122.396973,121.074219 L115.512207,121.074219 C115.08903,121.074219 114.783854,121.171875 114.59668,121.367188 C114.409505,121.5625 114.315918,121.904297 114.315918,122.392578 C114.315918,122.880859 114.413574,123.361003 114.608887,123.833008 L114.608887,123.833008 L115.927246,123.833008 C115.731934,125.411784 114.96696,128.736165 113.632324,133.806152 C112.297689,138.876139 111.557129,141.411133 111.410645,141.411133 C111.26416,141.411133 110.600911,139.209798 109.420898,134.807129 C108.240885,130.40446 107.467773,127.259115 107.101562,125.371094 C106.735352,123.483073 106.462728,122.331543 106.283691,121.916504 C106.104655,121.501465 105.787272,121.216634 105.331543,121.062012 C104.875814,120.907389 103.996908,120.830078 102.694824,120.830078 C101.002116,120.830078 99.879069,120.882975 99.3256836,120.98877 C98.7722982,121.094564 98.4956055,121.424154 98.4956055,121.977539 C98.4956055,122.433268 98.6013997,122.929688 98.8129883,123.466797 C99.3826497,123.466797 99.8465169,123.519694 100.20459,123.625488 C100.562663,123.731283 100.859701,124.016113 101.095703,124.47998 C101.331706,124.943848 101.649089,125.773926 102.047852,126.970215 C102.446615,128.166504 103.443522,131.466471 105.038574,136.870117 C106.633626,142.273763 107.488118,145.016276 107.602051,145.097656 C107.715983,145.179036 108.448405,145.244141 109.799316,145.292969 C108.367025,149.785156 106.926595,152.108561 105.478027,152.263184 C104.02946,152.417806 101.775228,152.185872 98.715332,151.567383 C98.1619466,152.267253 97.8852539,153.048503 97.8852539,153.911133 C97.8852539,154.611003 98.1497396,155.091146 98.6787109,155.351562 C99.2076823,155.611979 100.359212,155.742188 102.133301,155.742188 Z M135.556152,145 C136.06071,145 136.402507,144.91862 136.581543,144.755859 C136.760579,144.593099 136.850098,144.291992 136.850098,143.852539 C136.850098,143.364258 136.752441,142.908529 136.557129,142.485352 L136.557129,142.485352 L133.847168,142.485352 C133.733236,140.060221 133.67627,137.407227 133.67627,134.526367 L133.67627,134.526367 L133.67627,129.375 C133.67627,127.389323 134.16862,126.013997 135.15332,125.249023 C136.138021,124.484049 137.305827,124.101562 138.656738,124.101562 C140.235514,124.101562 141.378906,124.654948 142.086914,125.761719 C142.794922,126.86849 143.148926,129.098307 143.148926,132.451172 L143.148926,132.451172 L143.148926,142.973633 C143.148926,143.640951 143.238444,144.117025 143.41748,144.401855 C143.596517,144.686686 143.938314,144.857585 144.442871,144.914551 C144.899375,144.966092 146.075347,144.994316 147.970786,144.999225 L148.593262,145 C149.34196,145 149.854655,144.926758 150.131348,144.780273 C150.40804,144.633789 150.546387,144.34082 150.546387,143.901367 C150.546387,143.429362 150.456868,142.957357 150.277832,142.485352 C149.366374,142.501628 148.784505,142.249349 148.532227,141.728516 C148.279948,141.207682 148.153809,136.56901 148.153809,127.8125 C148.153809,124.996745 147.604492,123.088379 146.505859,122.087402 C145.407227,121.086426 143.775553,120.585938 141.61084,120.585938 C140.373861,120.585938 138.970052,120.838216 137.399414,121.342773 C135.828776,121.847331 134.237793,122.636719 132.626465,123.710938 C132.724121,122.539062 132.724121,121.578776 132.626465,120.830078 C128.655111,120.960286 126.498535,121.086426 126.156738,121.208496 C125.814941,121.330566 125.644043,121.611328 125.644043,122.050781 C125.644043,122.539062 125.749837,123.011068 125.961426,123.466797 C127.019368,123.466797 127.735514,123.849284 128.109863,124.614258 C128.484212,125.379232 128.671387,128.162435 128.671387,132.963867 C128.671387,136.723633 128.606283,139.897461 128.476074,142.485352 L128.476074,142.485352 L126.791504,142.485352 C126.384603,142.485352 126.091634,142.570801 125.912598,142.741699 C125.733561,142.912598 125.644043,143.177083 125.644043,143.535156 C125.644043,143.990885 125.749837,144.479167 125.961426,145 L125.961426,145 L135.556152,145 Z M166.000488,145.488281 C168.116374,145.488281 170.016602,145.244141 171.701172,144.755859 C173.385742,144.267578 174.228027,143.55957 174.228027,142.631836 C174.228027,141.850586 173.959473,141.085612 173.422363,140.336914 C170.948405,141.590169 168.775553,142.216797 166.903809,142.216797 C164.446126,142.216797 162.753418,141.415202 161.825684,139.812012 C160.897949,138.208822 160.434082,135.828451 160.434082,132.670898 C160.434082,129.594727 160.910156,127.336426 161.862305,125.895996 C162.814453,124.455566 164.421712,123.735352 166.684082,123.735352 C168.409342,123.735352 170.492676,124.370117 172.934082,125.639648 C173.617676,124.760742 173.959473,123.833008 173.959473,122.856445 C173.943197,122.058919 173.454915,121.460775 172.494629,121.062012 C171.534342,120.663249 169.988118,120.463867 167.855957,120.463867 C163.493978,120.463867 160.246908,121.647949 158.114746,124.016113 C155.982585,126.384277 154.916504,129.822591 154.916504,134.331055 C154.916504,138.400065 155.762858,141.276855 157.455566,142.961426 C159.148275,144.645996 161.996582,145.488281 166.000488,145.488281 Z M190.731934,140.458984 C191.594564,140.458984 192.39209,140.361328 193.124512,140.166016 L193.124512,140.166016 L193.124512,130.131836 L201.034668,130.131836 C201.68571,130.131836 202.133301,129.997559 202.377441,129.729004 C202.621582,129.460449 202.743652,129.041341 202.743652,128.47168 C202.743652,127.739258 202.637858,127.055664 202.42627,126.420898 L202.42627,126.420898 L193.124512,126.420898 L193.124512,117.509766 C193.124512,117.03776 192.998372,116.683757 192.746094,116.447754 C192.493815,116.211751 192.034017,116.09375 191.366699,116.09375 C190.82959,116.09375 190.080892,116.191406 189.120605,116.386719 L189.120605,116.386719 L189.120605,126.420898 L180.941895,126.420898 C180.469889,126.420898 180.115885,126.551107 179.879883,126.811523 C179.64388,127.07194 179.525879,127.535807 179.525879,128.203125 C179.525879,128.740234 179.623535,129.383138 179.818848,130.131836 L179.818848,130.131836 L189.120605,130.131836 L189.120605,138.75 C189.120605,139.401042 189.250814,139.848633 189.51123,140.092773 C189.771647,140.336914 190.178548,140.458984 190.731934,140.458984 Z" id="text-logo"></path>
        </g>
    </g>
</svg>